PathFileType	4	(X/Y/Z)	Patient4_TMGait_0pt2_01_right_03.trc.trc
DataRate	CameraRate	NumFrames	NumMarkers	Units	OrigDataRate	OrigDataStartFrame	OrigNumFrames
40.345821325648	40.345821325648	6	33	mm	40.345821325648	89	       141
Frame#	Time	Sacral			L.Shoulder			Chest			R.Shoulder			Neck			R.ASIS			L.ASIS			R.Thigh.Superior			R.Thigh.Lateral			R.Thigh.Inferior			R.Patella			L.Thigh.Superior			L.Thigh.Lateral			L.Thigh.Inferior			L.Patella			L.Shank.Superior			L.Shank.Lateral			L.Shank.Inferior			R.Shank.Superior			R.Shank.Lateral			R.Shank.Inferior			R.Heel			R.Midfoot.Superior			R.Midfoot.Lateral			R.Toe			L.Heel			L.Midfoot.Lateral			L.Midfoot.Superior			L.Toe			L.Elbow			L.Wrist			R.Elbow			R.Wrist			
		X1	Y1	Z1	X2	Y2	Z2	X3	Y3	Z3	X4	Y4	Z4	X5	Y5	Z5	X6	Y6	Z6	X7	Y7	Z7	X8	Y8	Z8	X9	Y9	Z9	X10	Y10	Z10	X11	Y11	Z11	X12	Y12	Z12	X13	Y13	Z13	X14	Y14	Z14	X15	Y15	Z15	X16	Y16	Z16	X17	Y17	Z17	X18	Y18	Z18	X19	Y19	Z19	X20	Y20	Z20	X21	Y21	Z21	X22	Y22	Z22	X23	Y23	Z23	X24	Y24	Z24	X25	Y25	Z25	X26	Y26	Z26	X27	Y27	Z27	X28	Y28	Z28	X29	Y29	Z29	X30	Y30	Z30	X31	Y31	Z31	X32	Y32	Z32	X33	Y33	Z33	

89	6.691142857143	809.698317203236	1008.042542912668	489.563361580330	982.894379538439	1433.575066300644	300.471438774992	1101.625364866301	1359.192562488839	448.075488497444	1035.861051204423	1430.047670161413	629.531893886069	981.276944386898	1490.654245873703	464.964121170294	1043.063114781110	931.285313039299	589.501220529106	1011.544759011856	956.376509701803	317.822606251620	1035.773447118841	719.804668241042	566.976087659307	933.587171002743	628.457750009228	635.905772437115	992.344272534097	559.415805933170	557.374681773067	971.115636472224	472.275218590349	567.425004836692	1074.854764108233	758.186057338180	353.503782650447	1006.778221331251	630.669482064630	286.820265695393	1099.935091954940	563.018761633004	350.114892477043	1107.896159208650	488.872249071564	354.749482442582	1075.389375471564	415.196179490117	346.562486618321	981.179388210190	307.470988467658	289.936434259110	1022.854380904972	191.444985399661	357.638541750492	922.754689805654	392.357697929515	578.283139582488	828.161367725041	311.202133667573	645.092836558544	847.588573990330	206.669937309048	587.362267484353	681.317394558586	61.476741989526	563.520644312559	856.821757671954	100.451099063054	600.945063225878	763.370992672695	46.811755374171	638.296249714701	970.351695336791	37.364420930742	630.740410419104	885.686349615768	39.644855591701	389.022645814416	962.546210864749	36.712043249254	311.465023451725	1045.758426958488	96.967448917909	341.750649622081	1174.321632365318	42.650660852741	316.764658517042	873.855344633200	1110.189345448855	174.540381556166	853.836508532504	847.960423332266	187.917496480355	1231.093015241363	1162.680268451228	736.156958806965	1464.909395180618	1244.370431753211	668.267770352715	
90	6.715928571429	808.886108594522	1008.120372541023	483.840040199401	983.328313103779	1433.385477337562	295.541083721180	1100.813701679643	1359.039070279973	444.044582773763	1034.174756634302	1430.299292008299	625.114576657582	980.730726791669	1490.707984434478	460.183942070641	1041.496869285233	931.336613988656	585.207941611049	1011.614663991572	956.250384904079	313.327911953328	1034.624934640710	719.904707059762	563.671339728076	932.397703992869	628.867513416482	632.814675168941	991.817596277536	559.313410583096	555.120952038190	970.831470384535	471.583805047225	565.984319864879	1074.070575669880	757.534102582415	349.373791959538	1005.131105293541	630.033218470519	283.603613053476	1097.803045742534	562.178607131241	347.321374526075	1105.360601162263	488.028314736525	352.486299390523	1072.421105053318	414.339143566384	344.731284798012	977.696100660355	306.818502285870	288.540303154973	1018.446905547987	191.013674743008	357.067448150657	921.227443021436	392.277331357808	576.920855692499	825.532381459268	312.470330488113	643.723433004575	844.292441710332	207.337297984390	586.924230551723	676.807238767067	63.548013119044	563.540567423364	852.646361962652	100.900668545713	600.992776842368	758.763574410806	48.030913027834	638.309831455708	965.586348092797	37.177459272995	630.772459176946	880.670846215386	39.568118216594	388.997436075273	957.520414195612	36.636780862496	311.389030024743	1040.737206400423	96.879415241207	341.681802969024	1169.333192270334	42.556327350860	316.746891324011	878.320089224102	1109.339068637206	166.965533969656	862.772541494975	846.518325387770	178.058193765995	1224.547396157391	1158.601550200787	733.768262869604	1462.651100971219	1231.538453168076	668.559594074686	
91	6.740714285714	807.988444648052	1008.207193079449	478.191374157576	983.795194158781	1433.198084850520	290.718964472946	1099.911544517935	1358.928382918426	440.216976708558	1032.300681973365	1430.640671169183	620.845781770192	980.120596562844	1490.798854685990	455.516944407676	1039.865857769632	931.475260468697	581.087954216283	1011.694082168478	956.164671620101	309.001614269602	1033.797843256766	720.120683326271	560.486029425336	931.742634535231	629.209445460211	629.832119195103	991.974664148428	559.233454205610	552.969199453802	971.359103303719	470.744081092470	564.736570198939	1073.230694144898	756.841526417196	345.384651138526	1003.385853931872	629.408254130368	280.521004617431	1095.498722902416	561.317379819447	344.705644054740	1102.617291434026	487.209965744602	350.417136718832	1069.292928381504	413.531762016969	343.034723623748	974.139146253572	306.181540328028	287.211601903453	1013.993081179654	190.611003990096	356.562766867287	920.309099182102	392.130914509925	575.674148296215	823.396693966935	313.808209218858	642.396258387092	841.345133333148	208.061062245001	586.537079518008	672.423904305691	65.902070580223	563.584620444669	848.664595203960	101.367651408700	601.071058511755	754.266643277734	49.396523136127	638.343821741074	960.905651414003	37.006101087888	630.809245770071	875.654091949237	39.494263933836	388.973344767457	952.494347211273	36.567620958707	311.318656870101	1035.719262162585	96.792423960483	341.621328230014	1164.342221561771	42.460327825052	316.727897794946	883.371377940199	1108.380993400949	159.436548965663	873.029207012195	844.999613943094	168.077105252412	1216.464913893032	1153.669761140627	731.717913930223	1458.918715433285	1216.224523898136	669.367866611543	
92	6.765500000000	807.018264933651	1008.291171739120	472.631373547266	984.273078581057	1433.022652085366	286.031791375264	1098.927715102321	1358.875382950950	436.600183314717	1030.241865102601	1431.051747423905	616.738983934342	979.436255167580	1490.921233601823	450.991955912141	1038.217575559037	931.694531158045	577.126825259449	1011.791609162106	956.129619083032	304.838610920855	1033.363013955958	720.445091152062	557.389258017634	931.718731036567	629.460501015082	626.944628805858	992.898950826741	559.166181704675	550.879773478008	972.758248358404	469.755412652012	563.634523329885	1072.357519681768	756.115611081026	341.552195948584	1001.580677527113	628.795404382045	277.579630848345	1093.059415686687	560.441163756074	342.280204465434	1099.708540236019	486.415111432678	348.548500101354	1066.040179299953	412.770792623939	341.481855977959	970.537692245379	305.563610158662	285.959666680411	1009.511813665812	190.233782283829	356.126607443759	920.084284897744	391.916170982667	574.522767152816	821.842263209100	315.222695379453	641.099624628218	838.809499027093	208.849780014944	586.187583983646	668.212447896890	68.588583605681	563.659465189403	844.915713269343	101.838022932485	601.178875155262	749.910789592714	50.933819852681	638.402543587153	956.316762876715	36.859826460083	630.849446668808	870.640430784769	39.424392531410	388.950480235615	947.474048308829	36.507011276653	311.256722858448	1030.708832532907	96.710216513447	341.573486729783	1159.353421785550	42.365903359370	316.710986244429	889.051673610246	1107.340191197197	151.979799726348	884.833597551038	843.494081301080	158.032035730020	1206.731029379417	1147.934292883737	729.933958671567	1453.365495521596	1198.256120246551	670.618758600129	
93	6.790285714286	805.995892344056	1008.355564378694	467.180374420497	984.731629902075	1432.866329453266	281.506755903858	1097.872098756510	1358.889396926288	433.194574782364	1028.012226850272	1431.501777721198	612.806335407339	978.670782325709	1491.065101417257	446.639362631221	1036.602990951852	931.981031324739	573.305486020613	1011.912884199873	956.150930138414	300.830004623079	1033.377125165884	720.864586080229	554.351067687242	932.394277015530	629.601835173593	624.134421796675	994.641752358816	559.103839709771	548.812539341033	975.052125548633	468.631355250985	562.623343939075	1071.472767029902	755.362361391626	337.891428344486	999.755739070837	628.192168537615	274.784537828394	1090.527988517770	559.554246063129	340.052619536500	1096.683412274013	485.638339271715	346.880824245795	1062.702433443045	412.048816329965	340.078075251894	966.921493238760	304.966218625962	284.793466891088	1005.021483702033	189.877423491281	355.758997085774	920.615185457582	391.637654572433	573.444105161020	820.942424695893	316.725005920445	639.825248949669	836.741094212744	209.719433445359	585.864203410498	664.225130139558	71.670903312458	563.771858760348	841.434009889396	102.299884739687	601.317028547727	745.725285711881	52.678063401762	638.490197575329	951.812828608469	36.745250691733	630.891302633119	865.633483669902	39.360965924602	388.929246362117	942.464422860413	36.457049470821	311.206182839702	1025.709816854180	96.634873732889	341.542080277545	1154.370687400823	42.272873226958	316.698662510440	895.378131463522	1106.255656995020	144.614279329580	898.392116548538	842.139634072903	147.980382593551	1195.274711924831	1141.491121732318	728.328775138860	1445.605222378377	1177.527562089293	672.237134685698	
94	6.815071428571	804.950219172118	1008.380290346073	461.864089405523	985.136239678294	1432.734339562649	277.169426008702	1096.757000620253	1358.972874059905	429.992685377158	1025.638272092230	1431.951152528259	609.057678810349	977.822517313699	1491.216784519021	442.488573963191	1035.071896486033	932.316039357607	569.603060436715	1012.060931346103	956.227821416170	296.963917562212	1033.877752050205	721.362809504831	551.346659882028	933.803756479222	629.622210365919	621.381967360893	997.219516623176	559.043269752224	546.732366723625	978.233240703236	467.399432547859	561.649750348345	1070.597507521027	754.586387148598	334.414854085048	997.951463813750	627.592911068218	272.137696086160	1087.952078660199	558.658842976190	338.022880631510	1093.596666263356	484.871527455123	345.406876055290	1059.322782258047	411.354750166494	338.823031510240	963.319762382536	304.389167037286	283.719124265599	1000.539705871233	189.536215257151	355.456808583706	921.939836355682	391.307597512732	572.416513446688	820.752271723174	318.333655747879	638.569452039819	835.185615950393	210.696722974064	585.558872598366	660.520032524082	75.233049364068	563.925877019910	838.245043254005	102.749505791810	601.488019376741	741.734941583313	54.681455061416	638.609110040226	947.367474835947	36.663354195800	630.932657977002	860.636167429685	39.307469855334	388.909843270318	937.469012004055	36.419153401516	311.169396804490	1020.725646910019	96.566889719184	341.529611656256	1149.397232084553	42.177991054139	316.692326906212	902.337945276132	1105.181116159143	137.352338787173	913.870866725639	841.126866963502	137.979720869762	1182.082974541336	1134.482583809430	726.800527121953	1435.225274703898	1154.029474726399	674.150006601717	
